<?xml version="1.0" encoding="utf-8" ?>
<svg xmlns="http://www.w3.org/2000/svg" xmlns:xlink="http://www.w3.org/1999/xlink" width="1024" height="1024">
	<path fill="#325284" transform="scale(2 2)" d="M306.286 188.001L335.16 187.994C342.233 187.994 349.693 187.539 356.66 188.907C400.864 197.588 404.386 260.392 359.249 272.488C370.569 287.913 384.865 305.826 397.391 320.507L383.516 320.528C380.633 320.559 377.615 320.882 374.759 320.507C373.362 319.001 372.154 317.243 370.898 315.615C368.603 312.635 366.073 309.823 363.729 306.878L336.668 273.179C327.03 273.032 317.361 273.176 307.72 273.179L307.72 320.507C301.845 320.612 295.956 320.523 290.079 320.507L290.075 213.829C290.077 200.433 289.02 187.933 306.286 188.001ZM307.72 205.593L307.72 256.498C323.13 255.908 353.363 260.078 364.515 250.188C381.412 235.972 372.462 207.499 350.006 205.704C345.219 205.321 340.258 205.585 335.453 205.594L310.313 205.593L307.72 205.593Z"/>
	<path fill="#0187E2" transform="scale(2 2)" d="M190.119 279.598C192.313 275.308 194.719 271.115 196.991 266.865L231.03 204.337C233.138 200.51 235.741 194.149 238.817 191.288C244.792 185.73 254.554 187.08 259.824 192.918C265.797 199.532 263.921 209.691 263.922 217.891L263.922 296.829C263.922 304.452 264.333 312.999 263.921 320.507L244.722 320.507L244.722 232.625C244.772 228.201 244.313 223.697 244.722 219.293C240.241 225.347 236.759 232.485 233.037 239.045L220.479 261.635C215.951 269.733 198.567 302.012 196.121 303.683C194.476 304.806 186.352 304.747 184.267 304.447C181.219 304.009 179.627 299.004 178.328 296.659L171.325 284.11C160.929 265.485 146.792 237.354 134.285 220.473L134.115 220.248L134.115 320.507L114.782 320.507L114.771 215.822C114.772 203.127 113.429 189.743 129.683 188.001C138.4 186.523 142.823 195.584 146.364 201.728L155.105 217.066C167.064 237.755 179.204 258.326 190.119 279.598Z"/>
</svg>
